<?xml version="1.0" encoding="UTF-8" standalone="no"?>
<!-- Created with Inkscape (http://www.inkscape.org/) -->

<svg
   width="210mm"
   height="297mm"
   viewBox="0 0 210 297"
   version="1.1"
   id="svg1"
   inkscape:version="1.4.2 (2aeb623e1d, 2025-05-12)"
   sodipodi:docname="affisch3.svg"
   xml:space="preserve"
   inkscape:export-filename="../6bd4a910/affisch inner.png"
   inkscape:export-xdpi="96"
   inkscape:export-ydpi="96"
   xmlns:inkscape="http://www.inkscape.org/namespaces/inkscape"
   xmlns:sodipodi="http://sodipodi.sourceforge.net/DTD/sodipodi-0.dtd"
   xmlns="http://www.w3.org/2000/svg"
   xmlns:svg="http://www.w3.org/2000/svg"><sodipodi:namedview
     id="namedview1"
     pagecolor="#ffffff"
     bordercolor="#000000"
     borderopacity="0.25"
     inkscape:showpageshadow="2"
     inkscape:pageopacity="0.0"
     inkscape:pagecheckerboard="0"
     inkscape:deskcolor="#d1d1d1"
     inkscape:document-units="mm"
     inkscape:zoom="0.35769572"
     inkscape:cx="813.54063"
     inkscape:cy="596.87603"
     inkscape:window-width="1854"
     inkscape:window-height="1011"
     inkscape:window-x="66"
     inkscape:window-y="32"
     inkscape:window-maximized="1"
     inkscape:current-layer="layer2" /><defs
     id="defs1"><rect
       x="19.768388"
       y="1049.7014"
       width="749.22191"
       height="35.583099"
       id="rect33" /><rect
       x="21.745227"
       y="1071.4466"
       width="743.2914"
       height="27.675744"
       id="rect32" /><rect
       x="25.698905"
       y="1037.8404"
       width="691.89359"
       height="39.536776"
       id="rect31" /><rect
       x="102.79562"
       y="237.22066"
       width="255.01221"
       height="39.536776"
       id="rect9" /><rect
       x="67.21252"
       y="55.351487"
       width="656.3105"
       height="160.12395"
       id="rect3" /><rect
       x="49.420971"
       y="61.282004"
       width="642.47262"
       height="266.87324"
       id="rect2" /><rect
       x="19.768388"
       y="1049.7014"
       width="749.22191"
       height="35.583099"
       id="rect11" /></defs><g
     inkscape:label="Bakgrund"
     inkscape:groupmode="layer"
     id="layer1"
     style="display:inline"><rect
       style="fill:#fff781;fill-opacity:1;stroke:none;stroke-width:0.854253;stroke-linecap:butt;stroke-linejoin:round;stroke-dasharray:none;stroke-dashoffset:0;stroke-opacity:1"
       id="rect1"
       width="210.61255"
       height="297.078"
       x="-0.46876469"
       y="-0.057241358" /><g
       id="g33"
       transform="matrix(2.9177478,0,0,2.9177478,-1964.239,-676.46821)"
       style="display:inline"><path
         class="st0"
         d="m 888.83674,300.14944 c -2.5,-2.7 -2.7,-6.6 -3.6,-10 0,-4.6 -2.2,-8.9 -3.6,-13.2 2.1,0.7 4,1.9 6.2,2.3 0.4,-0.2 1.1,0 1.1,-0.5 -0.2,-0.1 -0.7,-0.1 -0.6,-0.5 -1.6,-0.8 -2.6,-2.7 -3.7,-4.3 -1.6,-4.4 -3.3,-7.9 -5.1,-12.3 -1.4,-3.9 -3.8,-7.4 -7.3,-10.4 -0.7,-0.4 0.3,-0.7 0.5,-1.1 3.1,-0.4 5.4,-2.5 8.2,-3.5 0.9,-1.2 -1,-1.2 -1.4,-2 -3.2,-1.1 -6.3,-2.5 -9.7,-3.1 -5.6,-0.8 -12,0.2 -17.2,-1.9 -4.8,-1.2 -9.9,-1.5 -14.1,-4.10001 -1,0 -1.1,-1.2 -2.2,-0.8 -0.6,0.4 -1.3,0.3 -1.7,1.1 -0.8,4.70001 -6.2,3.30001 -9.2,5.30001 -1.2,1.1 -3.3,0.8 -4,2.5 0.2,1.4 -0.8,2.5 -1.9,3.5 -2.2,0.9 -4.2,1.9 -6.6,1.9 -2.1,0.8 -3.7,2.7 -6,2.8 -2.4,1.6 -4.3,4.4 -5.3,7.2 -0.6,0.7 -1.7,1.1 -2.2,1.9 -1.4,1.5 -4.1,2.2 -4.5,4.4 -0.3,0.7 0,1.4 0.7,1.4 5.7,-1.8 13.1,-1.4 19.1,-0.4 1.5,0.8 3.3,0.8 4.9,1.2 2.1,0.7 2,3.3 3,5 -0.4,2.6 -1.6,4.9 -2.9,7.2 -1.7,3 -5,4 -7.7,5.5 -1.7,0.6 -4.6,0.1 -4.8,2.3 1.3,2.7 4.9,1.5 6.9,3.5 1.2,-0.1 2.5,1 3.4,-0.2 -0.1,-1.8 1.1,-2.9 1.1,-4.6 0.1,-0.7 1.2,-0.7 1,-1.5 1.7,-0.6 3.2,-1.5 4.9,-1.9 0.7,0.9 0.2,2.2 0.3,3.2 1,1.3 2.1,3.2 1.1,4.8 0.3,2.1 0.3,4.4 2.4,5.5 -1.4,-4.2 2.5,-6.7 4.7,-9.7 0.6,-1 0.5,-2.4 1.3,-3.1 2,1.3 0.7,4.1 0.6,5.8 1.2,-0.1 1.8,-1.1 2.5,-1.8 2.2,-2.5 2,-6.8 1.1,-9.4 2.6,-1.9 6,-2.3 8.8,-3.9 1.2,-0.1 2.6,-1.3 3.7,-0.4 0.5,3 1.3,7.1 -0.1,10.2 -0.7,3.3 -4.4,3.6 -6.8,5 -1.2,0.6 -2.9,0.1 -3.9,0.7 1.1,0.9 2.5,1.4 3.2,2.7 -3.9,2.1 -7.4,6 -10.5,9.5 -5.2,5.2 -11.2,8.7 -18.3,9.2 -1.3,-0.1 -2.6,-0.9 -3.9,-0.1 -0.1,0.3 0.3,0.4 0.5,0.7 2.3,1.7 4.9,1.5 7.7,2.2 -2.9,3.7 -4,8.7 -3.9,13.3 -0.4,4.2 1.1,8.2 2.9,11.7 1,1.1 1.1,3.2 2.8,3.5 -2.3,-6.6 1,-12.8 4.6,-17.9 0.8,-0.8 1.7,-1.9 2.7,-2.1 -1.9,3.4 -4.2,6.7 -4,11.1 l 1.7,-2 c 3.6,-1.9 7.2,-3.4 11,-4.7 1.4,0.2 2.7,-2.1 3.8,-0.6 -2.3,2.3 -3.4,5.7 -6.2,7.2 3.1,0.3 5.8,-1.6 8.4,-2.6 -1.8,3.9 -4.3,7.5 -6.5,11.2 -2.7,4.7 -6.9,7.4 -10.8,10.7 h 0.2 c 7.4,0.1 13.6,-3.8 19.7,-7.1 1.8,-1.2 3.8,-2.5 5.4,-4.1 1.5,-1.2 3.5,-2.3 4.5,-3.7 l 0.1,0.1 c 0.4,-0.7 1.6,-1.3 2.2,-1.8 0.4,3.7 -2.4,6.5 -4.3,9.4 4.3,0 8.4,-3.6 10.5,-7.5 1.1,-1.5 1.4,-3.5 2.5,-4.9 0.8,2.4 2.3,4.7 4.3,6.4 4.8,3.9 10.5,6.5 16.5,6.2 l -0.7,-0.3 c -3.8,-5.3 -6.2,-11.3 -6.8,-17.7 0.4,-1.3 -1.1,-2.5 0,-3.6 2.2,1.8 4.2,5.2 7.2,6.2 -2.6,-3.9 -3,-8.6 -3.8,-13.2 0,-7.3 -0.2,-14.4 0,-21.7 2.4,0.8 3.2,4.1 5.9,4.7 z m -52.1,-51.2 c -0.7,0.8 -1.7,1.5 -2.7,1.7 -1,-0.4 -2.2,-0.4 -2.8,-1.7 0.2,-0.9 0.9,-1.8 1.8,-2.3 1.8,0.1 4.5,-0.7 5.9,0.7 -0.1,1.2 -1.6,0.8 -2.2,1.6 z"
         id="path16" /><g
         id="g24"
         transform="translate(357.9367,207.94943)">
	<path
   class="st1"
   d="m 524.2,19.7 c 2.3,-0.4 4.9,-2.9 6.9,-0.2 -0.3,0.8 0.6,0.7 0.6,1.2 1.8,6.9 9.3,10.7 15.2,12.5 1.4,1.4 0.2,3.8 0.1,5.4 0,5 1.4,10.8 4.8,15.1 1.6,0.5 1.4,2.2 2,3.2 0.1,2.4 -3.1,3.5 -4.2,5.5 -2.8,3.8 -3.3,9 -1.4,13.2 0.1,3 -3.6,2.9 -4.8,5.2 -0.8,1.3 -0.9,3 -1.6,4.1 0.1,0.9 0.5,2.2 0.3,3.6 0.2,1.4 -1.5,1.6 -2.5,1.9 -3.7,2.4 -5,6.4 -7.2,9.9 -0.4,0.2 -0.9,0.6 -1.4,0.3 -0.6,-0.3 -0.3,-1.6 -0.2,-2.2 1.9,-5.1 4.6,-10 6.2,-15.3 0.6,-0.9 1.6,-2 0.9,-3 1.1,-6.8 3.3,-12.3 2.7,-18.9 0.9,-4.2 -1.9,-7.6 -2,-11.3 -1.5,-3.6 -3.5,-7.1 -6.1,-10 l -0.6,-0.1 c -7.2,-6.8 -17.5,-9.4 -27.3,-7.2 -2.3,0.1 -5.3,0.6 -7.4,-0.6 -4.5,-1.4 -9.8,-1.4 -13.9,-3.6 l -3.1,-1.3 c 3.5,-1.1 7.5,-4.1 7.6,-8.3 2.2,-0.7 4.2,0.9 6.4,1.1 4.3,0.5 7.9,-1.4 10.4,-4.6 1.4,-0.6 1.9,-2.6 3.7,-2.4 4.8,2.8 9.2,8.3 15.9,6.8 z"
   id="path17" />
	<path
   class="st1"
   d="m 446.7,60.6 c -1.4,-0.2 -3,0.3 -4.5,-0.1 0,-0.7 0.4,-1.6 0.6,-2.4 1.5,-0.1 3.2,0.1 4.7,-0.1 z"
   id="path18" />
	<path
   class="st1"
   d="m 451.6,60.7 c -1.3,0.2 -3,0.1 -4.1,0 l 0.5,-2.7 4.5,0.2 z"
   id="path19" />
	<path
   class="st1"
   d="m 457.6,59.1 c -0.8,0.9 -0.8,2 -2.2,1.4 -0.7,0.2 -1.7,0.5 -2.4,0 -0.3,-0.6 0.3,-1.3 0.2,-2.1 z"
   id="path20" />
	<path
   class="st1"
   d="m 463.2,61.5 c -1.3,-0.5 -3,0 -4.4,0 -1.4,0 -0.5,-1.3 -0.6,-2 1.7,0.7 4.1,-0.2 5,2 z"
   id="path21" />
	<path
   class="st1"
   d="m 464.4,65.3 c -0.6,2.1 -1.3,4 -2.4,5.8 -4.7,-0.6 -9.7,0.9 -14.2,-1.1 -4.6,-1.5 -9.8,-0.2 -14.3,0.2 -0.7,-0.4 -0.7,-1 -0.3,-1.6 5.5,-3.6 12.8,-2.4 19.1,-1.2 4.1,-0.4 7.7,-2.3 12.1,-2.1 z"
   id="path22" />
	<path
   class="st1"
   d="m 460.7,72.9 c -1.2,1 -2.3,2.5 -3.9,2.7 -0.1,-1 -0.7,-2 -0.3,-3 z"
   id="path23" />
	<path
   class="st1"
   d="m 455,73.1 c 0.1,1.1 0.1,2.1 0.7,2.9 -0.9,0.7 -2.1,1.5 -3.4,1.4 -0.1,-1.6 -2,-2.7 -1.6,-4.4 1.4,0.3 3,0.3 4.3,0.1 z"
   id="path24" />
</g></g><g
       id="g30"
       transform="matrix(0.26458333,0,0,0.26458333,-276.13781,58.84079)"><g
         id="g16">
	<g
   id="g8">
		<path
   d="m 35.8,83 -0.3,6.4 H 1.5 C 1.8,82.2 2,72.3 2,59.7 2,48.9 1.8,40 1.5,33 H 9.6 C 9.2,38.8 9,47.7 9,59.7 9,69.6 8.8,77.5 8.5,83.4 c 8.7,0 17.8,-0.1 27.3,-0.4 z"
   id="path1" />
		<path
   d="m 68.6,33 c -0.2,4.4 -0.4,9.3 -0.5,14.6 0,5.3 -0.1,11.2 -0.1,17.6 0,4.6 -0.4,8.5 -1.2,11.5 -0.8,3 -2,5.6 -3.7,7.7 -1.7,2.1 -3.8,3.6 -6.4,4.6 -2.6,1 -5.7,1.5 -9.4,1.5 -2.8,0 -5.3,-0.3 -7.5,-0.9 l 0.6,-6.3 c 2,1 4.2,1.4 6.4,1.4 2.5,0 4.7,-0.4 6.5,-1.1 1.9,-0.7 3.3,-1.8 4.5,-3.3 1.1,-1.5 1.9,-3.3 2.4,-5.5 0.5,-2.2 0.7,-5.1 0.7,-8.6 C 60.9,53.1 60.7,42 60.3,33 Z"
   id="path2" />
		<path
   d="m 131.4,33 c -0.1,5.5 -0.2,10.5 -0.3,15.3 -0.1,4.7 -0.1,9.2 -0.1,13.2 0,19.3 -7.6,29 -22.9,29 -4,0 -7.4,-0.6 -10.2,-1.7 -2.8,-1.1 -5.2,-2.9 -7,-5.2 -1.8,-2.4 -3.2,-5.3 -4,-8.9 C 86,71.1 85.6,66.9 85.6,62 c 0,-4.3 0,-8.8 -0.1,-13.6 C 85.4,43.6 85.4,38.5 85.2,33 h 8.2 c -0.3,11 -0.5,19.6 -0.5,25.8 0,5 0.2,9.1 0.7,12.3 0.5,3.2 1.4,5.8 2.6,7.9 1.2,2.1 2.8,3.6 4.7,4.5 1.9,0.9 4.3,1.3 7.3,1.3 3.1,0 5.6,-0.4 7.5,-1.3 1.9,-0.9 3.5,-2.3 4.7,-4.4 1.2,-2 2.1,-4.6 2.6,-7.8 0.5,-3.2 0.8,-7.4 0.8,-12.5 0,-3.1 -0.1,-6.7 -0.2,-11 -0.1,-4.3 -0.3,-9.2 -0.5,-14.8 z"
   id="path3" />
		<path
   d="m 181.8,74.7 c 0,10.7 -7.4,16 -22.3,16 -5.4,0 -10.2,-0.6 -14.5,-1.9 l 1.5,-6.8 c 4.8,1.7 9.5,2.5 13.8,2.5 9.8,0 14.7,-2.8 14.7,-8.3 0,-2.8 -1.3,-5.2 -3.8,-7.2 -1.7,-1.3 -5.1,-3.1 -10,-5.3 -5.3,-2.3 -8.9,-4.5 -11,-6.5 -2.9,-2.7 -4.4,-6.1 -4.4,-10.2 0,-4.3 1.5,-7.7 4.5,-10.4 3.3,-3 8,-4.5 14.1,-4.5 6.9,0 11.6,0.4 14.1,1.3 l -1,6.9 c -4.4,-1.4 -9,-2.1 -14,-2.1 -7.4,0 -11.1,2.5 -11.1,7.4 0,2.4 1.1,4.4 3.2,6 1.4,1 4.4,2.5 9.2,4.6 5.4,2.3 9.3,4.6 11.7,6.7 3.5,3.3 5.3,7.2 5.3,11.8 z"
   id="path4" />
		<path
   d="m 241,59.1 c 0,8.2 -2.6,15.4 -7.9,21.6 -5.2,6.2 -12.5,9.3 -21.7,9.3 -3,0 -8,-0.2 -15,-0.6 0.4,-8.9 0.6,-18.8 0.6,-29.6 0,-10.2 -0.2,-19.1 -0.6,-26.8 h 4.8 c 1.2,0 2.9,0 5.3,-0.1 2.4,-0.1 3.9,-0.1 4.7,-0.1 10.2,0 17.7,2.5 22.6,7.5 4.8,4.9 7.2,11.2 7.2,18.8 z m -7.5,2 c 0,-6.4 -2,-11.8 -6.1,-16.1 -4.1,-4.3 -10.4,-6.5 -18.9,-6.5 -1.2,0 -2.9,0.1 -5,0.4 0.2,6.7 0.3,13.6 0.3,20.7 0,7.8 0.2,15.7 0.5,23.7 2.3,0.5 4.5,0.7 6.7,0.7 7.6,0 13.3,-2.3 17,-6.8 3.6,-4.4 5.5,-9.8 5.5,-16.1 z"
   id="path5" />
		<path
   d="m 301.7,89.3 h -9.1 c 0,-1.9 -1.8,-8 -5.5,-18.2 h -25 c -3.6,10.1 -5.4,16.1 -5.4,18.2 H 248 c 0,-1.1 3.7,-10.3 11.2,-27.7 7.4,-17.4 11.2,-27 11.2,-28.7 h 10 c 0,1.7 3.6,11.1 10.7,28.3 7.1,17.2 10.6,26.5 10.6,28.1 z M 285.1,65.4 c -6.8,-16.9 -10.2,-25.9 -10.2,-27 h -0.5 c 0,0.9 -3.5,9.9 -10.5,27 z"
   id="path6" />
		<path
   d="m 346.8,83 -0.3,6.4 h -34.1 c 0.3,-7.1 0.5,-17 0.5,-29.6 0,-10.9 -0.2,-19.8 -0.5,-26.8 h 8.1 c -0.3,5.8 -0.5,14.7 -0.5,26.8 0,9.9 -0.2,17.8 -0.5,23.7 8.7,-0.1 17.8,-0.2 27.3,-0.5 z"
   id="path7" />
		<path
   d="m 391.1,74.7 c 0,10.7 -7.4,16 -22.3,16 -5.4,0 -10.2,-0.6 -14.5,-1.9 l 1.5,-6.8 c 4.8,1.7 9.5,2.5 13.8,2.5 9.8,0 14.7,-2.8 14.7,-8.3 0,-2.8 -1.3,-5.2 -3.8,-7.2 -1.7,-1.3 -5.1,-3.1 -10,-5.3 -5.3,-2.3 -8.9,-4.5 -11,-6.5 -2.9,-2.7 -4.4,-6.1 -4.4,-10.2 0,-4.3 1.5,-7.7 4.5,-10.4 3.3,-3 8,-4.5 14.1,-4.5 6.9,0 11.6,0.4 14.1,1.3 l -1,6.9 c -4.4,-1.4 -9,-2.1 -14,-2.1 -7.4,0 -11.1,2.5 -11.1,7.4 0,2.4 1.1,4.4 3.2,6 1.4,1 4.4,2.5 9.2,4.6 5.4,2.3 9.3,4.6 11.7,6.7 3.4,3.3 5.3,7.2 5.3,11.8 z"
   id="path8" />
	</g>
	<g
   id="g14">
		<path
   d="m 640.1,89.3 h -9.5 c 0,-0.3 -1.6,-2.8 -4.9,-7.5 -3.8,-5.5 -7.3,-10 -10.4,-13.5 -4.3,-4.8 -7.4,-7.2 -9.5,-7.2 h -1.3 c 0,6.8 0.1,16.2 0.4,28.3 h -8.1 c 0.4,-8.9 0.6,-18.8 0.6,-29.6 0,-10.2 -0.2,-19.1 -0.6,-26.8 h 8.1 c -0.3,7.7 -0.4,15.5 -0.4,23.4 h 1 c 1.6,0 5.5,-3.7 11.9,-11 6.3,-7.4 9.5,-11.5 9.5,-12.3 h 9 c 0,0.9 -3.1,4.4 -9.2,10.7 -6.1,6.3 -10.7,10.5 -13.7,12.7 v 0.4 c 3.3,1.3 8.8,7 16.6,17.2 7,9.2 10.5,14.4 10.5,15.2 z"
   id="path9" />
		<path
   d="m 702.3,60.3 c 0,9.3 -2.7,16.8 -8.2,22.4 -5.5,5.6 -11.7,8.3 -18.9,8.3 -6.9,0 -12.9,-2.6 -18.1,-7.7 -5.2,-5.1 -7.8,-12 -7.8,-20.8 0,-9.4 2.7,-16.9 8.2,-22.4 5.5,-5.5 11.8,-8.3 18.9,-8.3 6.9,0 12.9,2.6 18.1,7.7 5.2,5.1 7.8,12.1 7.8,20.8 z m -7.7,1 c 0,-7.4 -2,-13.2 -5.9,-17.3 -3.9,-4.1 -8.4,-6.1 -13.5,-6.1 -4.7,0 -8.9,2.2 -12.6,6.5 -3.7,4.3 -5.5,10 -5.5,17.2 0,7.5 2,13.3 5.9,17.3 3.9,4.1 8.4,6.1 13.5,6.1 4.7,0 8.9,-2.2 12.6,-6.5 3.7,-4.4 5.5,-10.1 5.5,-17.2 z"
   id="path10" />
		<path
   d="M 779.1,89.3 H 771 c 0,-6.4 -0.4,-15.7 -1.3,-27.9 -0.9,-12.2 -1.4,-19.5 -1.4,-21.9 h -0.4 c -2.9,9.4 -6.5,19.6 -11,30.5 -4.4,11 -6.6,17.4 -6.6,19.3 h -5.8 c 0,-2 -2.1,-8.6 -6.2,-19.6 -4.1,-11.1 -6.7,-18.5 -7.8,-22.2 -1.1,-3.8 -1.8,-6.4 -2.3,-8 h -0.4 c -0.1,4 -0.7,11.9 -1.7,23.9 -1.1,12 -1.6,20.6 -1.6,25.9 h -7.4 c 0,-0.3 1,-8.2 2.9,-23.8 2,-15.6 2.9,-26.4 2.9,-32.5 h 11.4 c 0,3.2 2.3,11.1 6.9,23.8 4.6,12.7 6.9,20.4 6.9,23.1 h 0.4 c 0,-2.7 2.6,-10.4 7.8,-23.1 C 761.4,44 764,36.1 764,33 h 11.1 c 0,6.1 0.7,16.9 2,32.4 1.3,15.4 2,23.4 2,23.9 z"
   id="path11" />
		<path
   d="m 858.8,89.3 h -8.1 c 0,-6.4 -0.4,-15.7 -1.3,-27.9 C 848.5,49.2 848,41.9 848,39.5 h -0.4 c -2.9,9.4 -6.5,19.6 -11,30.5 -4.4,11 -6.6,17.4 -6.6,19.3 h -5.8 c 0,-2 -2.1,-8.6 -6.2,-19.6 -4.1,-11.1 -6.7,-18.5 -7.8,-22.2 -1.1,-3.8 -1.8,-6.4 -2.3,-8 h -0.4 c -0.1,4 -0.7,11.9 -1.7,23.9 -1.1,12 -1.6,20.6 -1.6,25.9 h -7.4 c 0,-0.3 1,-8.2 2.9,-23.8 2,-15.6 2.9,-26.4 2.9,-32.5 H 814 c 0,3.2 2.3,11.1 6.9,23.8 4.6,12.7 6.9,20.4 6.9,23.1 h 0.4 c 0,-2.7 2.6,-10.4 7.8,-23.1 5.2,-12.7 7.8,-20.7 7.8,-23.7 h 11.1 c 0,6.1 0.7,16.9 2,32.4 1.2,15.3 1.9,23.3 1.9,23.8 z"
   id="path12-6" />
		<path
   d="m 923.3,33 c -0.1,5.5 -0.2,10.5 -0.3,15.3 -0.1,4.7 -0.1,9.2 -0.1,13.2 0,19.3 -7.6,29 -22.9,29 -4,0 -7.4,-0.6 -10.2,-1.7 -2.8,-1.1 -5.2,-2.9 -7,-5.2 -1.8,-2.4 -3.2,-5.3 -4,-8.9 -0.9,-3.6 -1.3,-7.8 -1.3,-12.7 0,-4.3 0,-8.8 -0.1,-13.6 -0.1,-4.8 -0.1,-9.9 -0.3,-15.4 h 8.2 c -0.3,11 -0.5,19.6 -0.5,25.8 0,5 0.2,9.1 0.7,12.3 0.5,3.2 1.4,5.8 2.6,7.9 1.3,2.1 2.8,3.6 4.7,4.5 1.9,0.9 4.3,1.3 7.3,1.3 3.1,0 5.6,-0.4 7.5,-1.3 1.9,-0.9 3.5,-2.3 4.7,-4.4 1.2,-2 2.1,-4.6 2.6,-7.8 0.5,-3.2 0.8,-7.4 0.8,-12.5 0,-3.1 -0.1,-6.7 -0.2,-11 -0.1,-4.3 -0.3,-9.2 -0.5,-14.8 z"
   id="path13-1" />
		<path
   d="M 986.1,89.3 H 980 c 0,-0.5 -4.7,-7.4 -14.2,-20.7 -9.9,-14 -15.5,-22.8 -16.9,-26.5 h -0.4 c 0.5,7 0.8,12.9 0.8,17.9 0,9.7 0.2,19.5 0.6,29.4 h -7.3 c 0.5,-9.4 0.7,-19.3 0.7,-29.6 0,-10.2 -0.2,-19.1 -0.7,-26.8 h 8.3 c 0,0.8 4.4,7.4 13.1,19.7 9.1,13 14.3,21.4 15.6,25.4 h 0.4 c -0.5,-7 -0.7,-13 -0.7,-17.9 0,-10.7 -0.2,-19.7 -0.6,-27.2 h 7.4 c -0.5,7.6 -0.7,16.6 -0.7,26.8 -0.1,10.3 0.2,20.2 0.7,29.5 z"
   id="path14" />
	</g>
	<g
   id="g15">
		<path
   d="M 561.5,1.3 H 425.2 v 92.2 0 c 0,0.2 0,0.5 0,0.7 0,38.1 30.5,69 68.1,69 37.6,0 68.1,-30.9 68.1,-69 0,-0.2 0,-0.5 0,-0.7 v 0 -92.2 z"
   id="path15" />
	</g>
</g></g></g><g
     inkscape:groupmode="layer"
     id="layer2"
     inkscape:label="Text"><g
       id="g12"
       transform="translate(3.6124518,-1.0583332)"><rect
         style="fill:none;fill-opacity:1;stroke:#000000;stroke-width:0.852001;stroke-linejoin:round;stroke-opacity:1"
         id="rect12"
         width="125.00732"
         height="33.285973"
         x="7.3968825"
         y="254.45276" /><text
         xml:space="preserve"
         transform="matrix(0.26458333,0,0,0.26458333,6.6284368,-13.624366)"
         id="text33"
         style="font-style:normal;font-variant:normal;font-weight:normal;font-stretch:normal;font-size:37.3333px;line-height:0%;font-family:'Liberation Mono';-inkscape-font-specification:'Liberation Mono, Normal';font-variant-ligatures:normal;font-variant-caps:normal;font-variant-numeric:normal;font-variant-east-asian:normal;text-align:start;writing-mode:lr-tb;direction:ltr;white-space:pre;shape-inside:url(#rect33);display:inline;opacity:0.896369;fill:#fff781;fill-opacity:1;fill-rule:nonzero;stroke:#000000;stroke-width:3.22016;stroke-linecap:butt;stroke-linejoin:round;stroke-dasharray:none;stroke-dashoffset:0;stroke-opacity:1"><tspan
           x="19.767578"
           y="1059.5862"
           id="tspan6"><tspan
             style="font-family:'DejaVu Sans Mono';-inkscape-font-specification:'DejaVu Sans Mono';fill:#000000;stroke:none"
             id="tspan4">Riotorget, Ljusdal</tspan></tspan></text><text
         xml:space="preserve"
         transform="matrix(0.26458333,0,0,0.26458333,5.8438789,1.8297816)"
         id="text11"
         style="font-style:normal;font-variant:normal;font-weight:normal;font-stretch:normal;font-size:37.3333px;line-height:0%;font-family:'Liberation Mono';-inkscape-font-specification:'Liberation Mono, Normal';font-variant-ligatures:normal;font-variant-caps:normal;font-variant-numeric:normal;font-variant-east-asian:normal;text-align:start;writing-mode:lr-tb;direction:ltr;white-space:pre;shape-inside:url(#rect11);display:inline;opacity:0.896369;fill:#fff781;fill-opacity:1;fill-rule:nonzero;stroke:#000000;stroke-width:3.22016;stroke-linecap:butt;stroke-linejoin:round;stroke-dasharray:none;stroke-dashoffset:0;stroke-opacity:1"><tspan
           x="19.767578"
           y="1059.5862"
           id="tspan11"><tspan
             style="font-family:'DejaVu Sans Mono';-inkscape-font-specification:'DejaVu Sans Mono';fill:#000000;stroke:none"
             id="tspan9">Tis 20 jan kl 18.00</tspan></tspan></text></g><text
       xml:space="preserve"
       id="text9"
       style="font-style:normal;font-variant:normal;font-weight:normal;font-stretch:normal;font-size:37.3333px;font-family:'Liberation Mono';-inkscape-font-specification:'Liberation Mono, Normal';font-variant-ligatures:normal;font-variant-caps:normal;font-variant-numeric:normal;font-variant-east-asian:normal;text-align:start;writing-mode:lr-tb;direction:ltr;white-space:pre;shape-inside:url(#rect9);display:inline;opacity:1;fill:#000000;fill-opacity:1;fill-rule:nonzero;stroke:none;stroke-width:1.00157;stroke-dasharray:none;stroke-opacity:1"
       transform="scale(0.26458333)" /><text
       xml:space="preserve"
       style="font-style:normal;font-variant:normal;font-weight:normal;font-stretch:normal;font-size:9.87778px;font-family:'Liberation Mono';-inkscape-font-specification:'Liberation Mono, Normal';font-variant-ligatures:normal;font-variant-caps:normal;font-variant-numeric:normal;font-variant-east-asian:normal;text-align:start;writing-mode:lr-tb;direction:ltr;text-anchor:start;white-space:pre;inline-size:96.8383;display:inline;opacity:1;fill:#000000;fill-opacity:1;fill-rule:nonzero;stroke:none;stroke-width:0.210679;stroke-dasharray:none;stroke-opacity:1"
       x="13.827809"
       y="58.053478"
       id="text8"
       transform="translate(58.736292,142.88804)"><tspan
         x="13.827809"
         y="58.053478"
         id="tspan12">till
</tspan><tspan
         x="13.827809"
         y="70.400702"
         id="tspan13">Älvhallarna</tspan></text><text
       xml:space="preserve"
       style="font-style:normal;font-variant:normal;font-weight:normal;font-stretch:normal;font-size:9.87778px;font-family:'Liberation Mono';-inkscape-font-specification:'Liberation Mono, Normal';font-variant-ligatures:normal;font-variant-caps:normal;font-variant-numeric:normal;font-variant-east-asian:normal;text-align:start;writing-mode:lr-tb;direction:ltr;text-anchor:start;white-space:pre;inline-size:96.8383;display:inline;opacity:1;fill:#000000;fill-opacity:1;fill-rule:nonzero;stroke:none;stroke-width:0.210679;stroke-dasharray:none;stroke-opacity:1"
       x="13.827809"
       y="58.053478"
       id="text4"
       transform="translate(46.246786,41.884065)"><tspan
         x="13.827809"
         y="58.053478"
         id="tspan14">Folket har sagt </tspan></text><g
       id="g37"
       transform="translate(-8.5504088,15.427886)"><text
         xml:space="preserve"
         style="font-style:normal;font-variant:normal;font-weight:normal;font-stretch:normal;font-size:19.7556px;font-family:'Liberation Mono';-inkscape-font-specification:'Liberation Mono, Normal';font-variant-ligatures:normal;font-variant-caps:normal;font-variant-numeric:normal;font-variant-east-asian:normal;text-align:start;writing-mode:lr-tb;direction:ltr;text-anchor:start;opacity:1;fill:#000000;fill-opacity:1;fill-rule:nonzero;stroke:none;stroke-width:0.264999;stroke-dasharray:none;stroke-opacity:1"
         x="97.317848"
         y="120.89764"
         id="text10"><tspan
           sodipodi:role="line"
           id="tspan10"
           style="font-size:19.7556px;stroke-width:0.265"
           x="97.317848"
           y="120.89764">Nej</tspan></text><rect
         style="opacity:1;fill:none;fill-opacity:1;fill-rule:nonzero;stroke:#000000;stroke-width:0.618645;stroke-dasharray:none;stroke-opacity:1"
         id="rect10"
         width="21.355949"
         height="19.107956"
         x="102.78438"
         y="132.29668" /><g
         id="g26"
         transform="matrix(1.677289,0,0,1.677289,-100.85627,-253.75535)"
         style="opacity:0.896369;fill:#e30613;fill-opacity:1"><path
           style="opacity:1;fill:#e30613;fill-opacity:1;fill-rule:nonzero;stroke:none;stroke-width:1;stroke-dasharray:none;stroke-opacity:1"
           id="path12"
           d="m 120.16153,228.44417 c 4.42285,4.40486 8.93879,8.71352 13.49642,12.97824 2.65104,2.47371 1.40208,1.28535 3.75337,3.55827 0,0 3.49339,1.43901 3.49339,1.43901 v 0 c -2.40813,-2.30384 -1.13114,-1.10186 -3.83745,-3.59904 -4.51897,-4.19878 -9.00255,-8.43834 -13.2876,-12.8778 z" /><path
           style="opacity:1;fill:#e30613;fill-opacity:1;fill-rule:nonzero;stroke:none;stroke-width:1;stroke-dasharray:none;stroke-opacity:1"
           id="path13"
           d="m 136.9625,227.89 c -3.37446,2.7517 -7.03877,5.10585 -10.68665,7.47087 -3.87838,2.52766 -7.82837,4.96324 -11.52196,7.76013 0,0 3.26662,2.0601 3.26662,2.0601 v 0 c 3.62178,-2.84194 7.51232,-5.31836 11.37446,-7.81607 3.696,-2.36351 7.40058,-4.71344 10.89803,-7.36852 z" /></g></g><g
       id="g34"><text
         xml:space="preserve"
         style="font-style:normal;font-variant:normal;font-weight:bold;font-stretch:normal;font-size:25.4px;font-family:'Liberation Mono';-inkscape-font-specification:'Liberation Mono Bold';font-variant-ligatures:normal;font-variant-caps:normal;font-variant-numeric:normal;font-variant-east-asian:normal;text-align:start;writing-mode:lr-tb;direction:ltr;text-anchor:start;opacity:1;fill:#000000;fill-opacity:1;fill-rule:nonzero;stroke:none;stroke-width:0.210679;stroke-dasharray:none;stroke-opacity:1"
         x="11.029813"
         y="33.021168"
         id="text7"
         inkscape:label="text7"><tspan
           sodipodi:role="line"
           style="font-style:normal;font-variant:normal;font-weight:bold;font-stretch:normal;font-size:23.9889px;font-family:'DejaVu Sans Mono';-inkscape-font-specification:'DejaVu Sans Mono, Bold';font-variant-ligatures:normal;font-variant-caps:normal;font-variant-numeric:normal;font-variant-east-asian:normal;fill:#000000;fill-opacity:1;stroke:none;stroke-width:0.210679"
           x="11.029813"
           y="33.021168"
           id="tspan26">DEMONSTRATION</tspan><tspan
           sodipodi:role="line"
           style="font-style:normal;font-variant:normal;font-weight:bold;font-stretch:normal;font-size:25.4px;font-family:'Liberation Mono';-inkscape-font-specification:'Liberation Mono Bold';fill:#000000;fill-opacity:1;stroke:none;stroke-width:0.210679"
           x="11.029813"
           y="64.771164"
           id="tspan7" /></text><text
         xml:space="preserve"
         style="font-style:normal;font-variant:normal;font-weight:bold;font-stretch:normal;font-size:19.7556px;font-family:'Liberation Mono';-inkscape-font-specification:'Liberation Mono Bold';font-variant-ligatures:normal;font-variant-caps:normal;font-variant-numeric:normal;font-variant-east-asian:normal;text-align:start;writing-mode:lr-tb;direction:ltr;text-anchor:start;opacity:1;fill:#e30613;fill-opacity:1;fill-rule:nonzero;stroke:none;stroke-width:0.711;stroke-dasharray:none;stroke-opacity:1"
         x="21.448669"
         y="56.041"
         id="text29"
         inkscape:label="text7"><tspan
           sodipodi:role="line"
           style="font-style:normal;font-variant:normal;font-weight:bold;font-stretch:normal;font-size:19.7556px;font-family:'DejaVu Sans Mono';-inkscape-font-specification:'DejaVu Sans Mono, Bold';font-variant-ligatures:normal;font-variant-caps:normal;font-variant-numeric:normal;font-variant-east-asian:normal;fill:#e30613;fill-opacity:1;stroke:none;stroke-width:0.711;stroke-dasharray:none;stroke-opacity:1"
           x="21.448669"
           y="56.041"
           id="tspan28">FÖR FOLKVILJAN</tspan><tspan
           sodipodi:role="line"
           style="font-style:normal;font-variant:normal;font-weight:bold;font-stretch:normal;font-size:19.7556px;font-family:'Liberation Mono';-inkscape-font-specification:'Liberation Mono Bold';fill:#e30613;fill-opacity:1;stroke:none;stroke-width:0.711;stroke-dasharray:none;stroke-opacity:1"
           x="21.448669"
           y="80.735504"
           id="tspan29" /></text></g><text
       xml:space="preserve"
       style="font-style:normal;font-variant:normal;font-weight:normal;font-stretch:normal;font-size:6.35px;line-height:0%;font-family:'DejaVu Sans Mono';-inkscape-font-specification:'DejaVu Sans Mono';font-variant-ligatures:normal;font-variant-caps:normal;font-variant-numeric:normal;font-variant-east-asian:normal;text-align:start;writing-mode:lr-tb;direction:ltr;text-anchor:start;opacity:0.896369;fill:#fff781;fill-opacity:1;fill-rule:nonzero;stroke:#000000;stroke-width:0.852001;stroke-linecap:butt;stroke-linejoin:round;stroke-dasharray:none;stroke-dashoffset:0;stroke-opacity:1"
       x="12.552927"
       y="284.53299"
       id="text30"><tspan
         sodipodi:role="line"
         id="tspan30"
         style="font-style:normal;font-variant:normal;font-weight:normal;font-stretch:normal;font-family:'DejaVu Sans Mono';-inkscape-font-specification:'DejaVu Sans Mono';stroke-width:0.852"
         x="12.552927"
         y="284.53299" /></text><text
       xml:space="preserve"
       transform="scale(0.26458333)"
       id="text31"
       style="font-style:normal;font-variant:normal;font-weight:normal;font-stretch:normal;font-size:24px;line-height:0%;font-family:'DejaVu Sans Mono';-inkscape-font-specification:'DejaVu Sans Mono';font-variant-ligatures:normal;font-variant-caps:normal;font-variant-numeric:normal;font-variant-east-asian:normal;text-align:start;writing-mode:lr-tb;direction:ltr;white-space:pre;shape-inside:url(#rect31);display:inline;opacity:0.896369;fill:#fff781;fill-opacity:1;fill-rule:nonzero;stroke:#000000;stroke-width:3.22016;stroke-linecap:butt;stroke-linejoin:round;stroke-dasharray:none;stroke-dashoffset:0;stroke-opacity:1" /><text
       xml:space="preserve"
       transform="scale(0.26458333)"
       id="text32"
       style="font-style:normal;font-variant:normal;font-weight:normal;font-stretch:normal;font-size:24px;line-height:0%;font-family:'Liberation Mono';-inkscape-font-specification:'Liberation Mono';font-variant-ligatures:normal;font-variant-caps:normal;font-variant-numeric:normal;font-variant-east-asian:normal;text-align:start;writing-mode:lr-tb;direction:ltr;white-space:pre;shape-inside:url(#rect32);display:inline;opacity:0.896369;fill:#fff781;fill-opacity:1;fill-rule:nonzero;stroke:#000000;stroke-width:3.22016;stroke-linecap:butt;stroke-linejoin:round;stroke-dasharray:none;stroke-dashoffset:0;stroke-opacity:1" /><g
       id="g36"
       style="fill:#434cdc;fill-opacity:1"
       transform="translate(294.32856,-301.34307)"><path
         style="opacity:0.896369;fill:#434cdc;fill-opacity:1;fill-rule:nonzero;stroke:none;stroke-width:0.852001;stroke-linecap:butt;stroke-linejoin:round;stroke-dasharray:none;stroke-dashoffset:0;stroke-opacity:1"
         d="m 154.58757,185.5028 c -1.649,-1.2514 0.28059,1.20834 -0.12185,6.05622 -0.40244,4.84786 -1.89829,7.91203 -0.0856,9.86828 1.81268,1.95628 4.79402,1.81581 6.18391,0.58038 1.38988,-1.23544 2.28165,-2.97072 2.19339,-5.17886 -0.0883,-2.20813 -2.62196,-3.33899 -3.18126,-4.37649 -0.55931,-1.03751 -1.32896,-1.79267 -2.45111,-3.06029"
         id="path34"
         sodipodi:nodetypes="csssssc" /><path
         style="opacity:0.896369;fill:#434cdc;fill-opacity:1;fill-rule:nonzero;stroke:none;stroke-width:0.585753;stroke-linecap:butt;stroke-linejoin:round;stroke-dasharray:none;stroke-dashoffset:0;stroke-opacity:1"
         d="m 177.99057,229.08355 c -1.14482,-0.84547 0.20373,0.82814 -0.0294,4.16441 -0.23316,3.33624 -1.23398,5.45611 0.0296,6.78465 1.26366,1.32857 3.31191,1.20525 4.25629,0.34349 0.94438,-0.86176 1.54186,-2.06265 1.46137,-3.57984 -0.0805,-1.51717 -1.8324,-2.27185 -2.22619,-2.98005 -0.39381,-0.70821 -0.92968,-1.22044 -1.71247,-2.08178"
         id="path34-8"
         sodipodi:nodetypes="csssssc" /><path
         style="opacity:0.896369;fill:#434cdc;fill-opacity:1;fill-rule:nonzero;stroke:none;stroke-width:0.852001;stroke-linecap:butt;stroke-linejoin:round;stroke-dasharray:none;stroke-dashoffset:0;stroke-opacity:1"
         d="m 150.05745,167.41678 c -0.3269,-1.43835 -0.52304,-2.61519 -0.98069,-3.13823 -0.45766,-0.52304 -0.6216,-1.88554 1.17683,-0.3269 0.9807,0.84994 1.56912,2.35368 2.35368,3.59589 0.34913,0.55278 2.48444,3.13824 2.87672,3.46513 0.39228,0.3269 0.9807,2.41906 0.52304,3.269 -0.45766,0.84993 -3.79204,2.94209 -4.83812,0.84993 -1.04608,-2.09215 -1.04608,-3.72665 -0.9807,-4.90348 0.0654,-1.17684 -0.13076,-2.81134 -0.13076,-2.81134 z"
         id="path35"
         sodipodi:nodetypes="csssssssc" /><path
         style="opacity:0.896369;fill:#434cdc;fill-opacity:1;fill-rule:nonzero;stroke:none;stroke-width:0.688834;stroke-linecap:butt;stroke-linejoin:round;stroke-dasharray:none;stroke-dashoffset:0;stroke-opacity:1"
         d="m 174.98092,209.84932 c -0.27788,-1.10602 -0.44462,-2.01096 -0.83365,-2.41315 -0.38904,-0.40219 -0.52839,-1.44988 1.00038,-0.25137 0.83366,0.65356 1.33385,1.80987 2.00077,2.76506 0.29679,0.42506 2.11193,2.41315 2.44539,2.66451 0.33346,0.25137 0.83366,1.86014 0.44462,2.5137 -0.38904,0.65356 -3.22347,2.26232 -4.1127,0.65356 -0.88923,-1.60876 -0.88923,-2.86561 -0.83366,-3.77053 0.0556,-0.90494 -0.11115,-2.16178 -0.11115,-2.16178 z"
         id="path35-0"
         sodipodi:nodetypes="csssssssc" /><path
         style="opacity:0.896369;fill:#434cdc;fill-opacity:1;fill-rule:nonzero;stroke:none;stroke-width:0.852001;stroke-linecap:butt;stroke-linejoin:round;stroke-dasharray:none;stroke-dashoffset:0;stroke-opacity:1"
         d="m 167.44851,181.53883 c 0,-1.04607 0,-2.02677 -0.19614,-2.35367 -0.19614,-0.3269 -0.3269,-1.17684 0.58841,-0.39228 0.91532,0.78456 2.54982,2.15753 2.81134,2.87671 0.26152,0.71918 0.39228,2.6152 -0.6538,2.94209 -1.04608,0.3269 -2.87671,-0.52303 -2.87671,-1.37297 0,-0.84994 0.3269,-1.69988 0.3269,-1.69988 z"
         id="path36" /></g></g><style
     type="text/css"
     id="style1">
	.st0{fill:#FFED00;}
	.st1{fill:#E30613;}
</style></svg>
